<svg width="80" height="80" viewBox="0 0 80 80" fill="none" xmlns="http://www.w3.org/2000/svg">
<path d="M22.75 6.1522C13.587 6.1522 6.1195 13.6195 6.1195 22.7826C6.1195 31.9456 13.5544 39.413 22.75 39.413C31.913 39.413 39.3478 31.9456 39.3478 22.7826C39.3478 13.5869 31.8805 6.1522 22.75 6.1522ZM22.75 41.5C12.413 41.5 4 33.087 4 22.75C4 12.413 12.413 4 22.75 4C33.087 4 41.5 12.413 41.5 22.75C41.4674 33.087 33.0544 41.5 22.75 41.5Z" fill="#004F2E"/>
<path d="M34.4729 17.5C34.0901 17.5 33.7393 17.3065 33.5479 16.9516C31.4425 13.0484 27.4229 10.629 23.0527 10.629C22.4785 10.629 22 10.145 22 9.56455C22 8.9839 22.4465 8.5 23.0527 8.5C28.1885 8.5 32.9098 11.3387 35.3662 15.9193C35.6533 16.4354 35.4619 17.0806 34.9515 17.3387C34.8238 17.4677 34.6324 17.5 34.4729 17.5Z" fill="#004F2E"/>
<path d="M54.3212 41.5C49.3751 41.5 44.6554 39.0944 41.7136 35.0635C41.3581 34.5758 41.455 33.9257 41.9399 33.5681C42.4249 33.2105 43.0714 33.3081 43.427 33.7957C45.9808 37.274 50.054 39.3545 54.3536 39.3545C61.8212 39.3545 67.8988 33.243 67.8988 25.7338C67.8988 18.2245 61.8212 12.1131 54.3536 12.1131C50.7005 12.1131 47.3062 13.5433 44.72 16.144C44.2999 16.5666 43.6532 16.5666 43.2331 16.144C42.8128 15.7213 42.8128 15.0712 43.2331 14.6487C46.2071 11.658 50.1511 10 54.3536 10C62.9849 10 70 17.0542 70 25.7338C70 34.4458 62.9527 41.5 54.3212 41.5Z" fill="#004F2E"/>
<path d="M22.75 76C22.3409 76 22 75.5061 22 74.9134V20.0866C22 19.4939 22.3181 19 22.75 19C23.159 19 23.5 19.4939 23.5 20.0866V74.9134C23.4772 75.5061 23.159 76 22.75 76Z" fill="#004F2E"/>
<path d="M22.495 28C22.2568 28 21.9889 27.9107 21.8101 27.7027L17.7902 23.6579C17.4032 23.2714 17.4032 22.6766 17.7902 22.2899C18.1774 21.9034 18.7729 21.9034 19.1601 22.2899L23.2097 26.3345C23.5967 26.7212 23.5967 27.316 23.2097 27.7027C22.9714 27.9107 22.7332 28 22.495 28Z" fill="#004F2E"/>
<path d="M22.9867 35.5C22.7124 35.5 22.4686 35.4073 22.2858 35.191C21.8896 34.7893 21.9202 34.1714 22.2858 33.7699L27.8013 28.3012C28.1974 27.8996 28.8373 27.8996 29.2029 28.3012C29.599 28.7029 29.599 29.3516 29.2029 29.7224L23.6875 35.191C23.4742 35.4073 23.2305 35.5 22.9867 35.5Z" fill="#004F2E"/>
<path d="M10.7498 45.0599C8.1514 45.0599 6.0598 47.1514 6.0598 49.75C6.0598 52.3486 8.1514 54.4401 10.7498 54.4401C13.3484 54.4401 15.4399 52.3486 15.4399 49.75C15.4399 47.1514 13.3484 45.0599 10.7498 45.0599ZM10.7498 56.5C7.0105 56.5 4 53.4577 4 49.75C4 46.0105 7.04215 43 10.7498 43C14.4892 43 17.4997 46.0423 17.4997 49.75C17.5315 53.4577 14.4892 56.5 10.7498 56.5Z" fill="#004F2E"/>
<path d="M22.4698 62.5C22.2183 62.5 21.9351 62.4046 21.7464 62.2141L11.8068 52.271C11.3977 51.8581 11.3977 51.2227 11.8068 50.8097C12.2157 50.3968 12.8448 50.3968 13.2537 50.8097L23.1933 60.7528C23.6023 61.1657 23.6023 61.8011 23.1933 62.2141C22.9732 62.3729 22.7215 62.5 22.4698 62.5Z" fill="#004F2E"/>
<path d="M31.9574 62.9591C30.9436 62.9591 30.1259 63.7245 30.1259 64.6735V64.7653C30.1259 65.7144 30.9436 66.4796 31.9574 66.4796H67.5097C68.5237 66.4796 69.3414 65.7144 69.3414 64.7653V64.6735C69.3414 63.7245 68.5237 62.9591 67.5097 62.9591M67.5097 68.5H31.9574C29.7661 68.5 28 66.847 28 64.7959V64.7041C28 62.653 29.7661 61 31.9574 61H67.5097C69.7011 61 71.5 62.653 71.5 64.7041V64.7959C71.5 66.847 69.7011 68.5 67.5097 68.5Z" fill="#004F2E"/>
<path d="M34.75 62.5C34.3409 62.5 34 61.9768 34 61.3489V47.1511C34 46.5232 34.3409 46 34.75 46C35.159 46 35.5 46.4884 35.5 47.1511V61.3489C35.5 62.0116 35.159 62.5 34.75 62.5Z" fill="#004F2E"/>
<path d="M64.75 62.5C64.3409 62.5 64 61.9768 64 61.3489V47.1511C64 46.5232 64.3409 46 64.75 46C65.159 46 65.5 46.4884 65.5 47.1511V61.3489C65.5 62.0116 65.1818 62.5 64.75 62.5Z" fill="#004F2E"/>
<path d="M68.923 52H30.577C29.9895 52 29.5 51.6769 29.5 51.2616C29.5 50.8462 29.9895 50.5 30.577 50.5H68.923C69.5106 50.5 70 50.8231 70 51.2616C70 51.6769 69.5106 52 68.923 52Z" fill="#004F2E"/>
<path d="M68.923 58H30.577C29.9895 58 29.5 57.659 29.5 57.25C29.5 56.8409 29.9895 56.5 30.577 56.5H68.923C69.5106 56.5 70 56.8181 70 57.25C70 57.659 69.5106 58 68.923 58Z" fill="#004F2E"/>
<path d="M34 68.5H32.5V76H34V68.5Z" fill="#004F2E"/>
<path d="M67 68.5H65.5V76H67V68.5Z" fill="#004F2E"/>
<path d="M54.25 46C53.8409 46 53.5 45.5176 53.5 44.9387V26.0613C53.5 25.4824 53.8409 25 54.25 25C54.659 25 55 25.4503 55 26.0613V44.9387C55 45.5176 54.659 46 54.25 46Z" fill="#004F2E"/>
<path d="M54.4752 32.5C54.237 32.5 53.9987 32.4112 53.7902 32.2336C53.4032 31.849 53.4032 31.2571 53.7902 30.8723L57.8399 26.7886C58.2271 26.4038 58.8226 26.4038 59.2097 26.7886C59.5967 27.1732 59.5967 27.7651 59.2097 28.1498L55.1897 32.2336C54.9814 32.4112 54.7432 32.5 54.4752 32.5Z" fill="#004F2E"/>
<path d="M53.9996 37C53.7866 37 53.5738 36.9403 53.3912 36.8211L47.8856 32.7649C47.4598 32.4369 47.3684 31.8405 47.7031 31.3932C48.0377 30.9457 48.646 30.886 49.1023 31.1844L54.6079 35.2404C55.0337 35.5684 55.1251 36.165 54.8209 36.6123C54.6079 36.8509 54.3038 37 53.9996 37Z" fill="#004F2E"/>
<path d="M62.958 20.5C62.6053 20.5 62.2846 20.3536 62.0923 20.0902C60.3931 17.8074 57.5717 16.4317 54.5579 16.4317C53.9809 16.4317 53.5 15.9926 53.5 15.4658C53.5 14.939 53.9809 14.5 54.5579 14.5C58.277 14.5 61.7397 16.1975 63.8236 19.0073C64.1442 19.4464 64.0159 20.0317 63.535 20.3244C63.3427 20.4708 63.1503 20.5 62.958 20.5Z" fill="#004F2E"/>
<path d="M74.9035 76H5.0965C4.49845 76 4 75.659 4 75.25C4 74.8409 4.49845 74.5 5.0965 74.5H74.9035C75.5015 74.5 76 74.8409 76 75.25C76 75.659 75.5015 76 74.9035 76Z" fill="#004F2E"/>
</svg>
