<svg width="52" height="52" viewBox="0 0 52 52" fill="none" xmlns="http://www.w3.org/2000/svg">
<g clip-path="url(#clip0_353_14)">
<path d="M5.93272 39.0312H23.9411C25.118 39.0312 26.0769 39.9902 26.0769 41.1671C26.0769 42.344 25.118 43.3029 23.9411 43.3029H5.93272C4.76205 43.3029 3.79688 42.344 3.79688 41.1671C3.79688 39.9964 4.75583 39.0312 5.93272 39.0312Z" stroke="#004F2E" stroke-width="1.60033" stroke-miterlimit="22.9256" stroke-linecap="round" stroke-linejoin="round"/>
<path d="M5.93262 48.0667H9.40103V43.2969H5.93262V48.0667Z" stroke="#004F2E" stroke-width="1.60033" stroke-miterlimit="22.9256" stroke-linecap="round" stroke-linejoin="round"/>
<path d="M20.479 48.0667H23.9412V43.2969H20.479V48.0667Z" stroke="#004F2E" stroke-width="1.60033" stroke-miterlimit="22.9256" stroke-linecap="round" stroke-linejoin="round"/>
<path d="M35.4858 47.8736V17.3242V27.991L41.1648 22.586" stroke="#004F2E" stroke-width="1.60033" stroke-miterlimit="22.9256" stroke-linecap="round" stroke-linejoin="round"/>
<path d="M35.4856 21.8382L33.1567 19.8145" stroke="#004F2E" stroke-width="1.60033" stroke-miterlimit="22.9256" stroke-linecap="round" stroke-linejoin="round"/>
<path d="M35.4859 30.014L29.2153 24.0859" stroke="#004F2E" stroke-width="1.60033" stroke-miterlimit="22.9256" stroke-linecap="round" stroke-linejoin="round"/>
<path d="M31.6812 26.416L28.1069 28.4647" stroke="#004F2E" stroke-width="1.60033" stroke-miterlimit="22.9256" stroke-linecap="round" stroke-linejoin="round"/>
<path d="M3.97754 19.28C3.97754 19.28 5.72109 18.7009 7.22801 19.5851C8.7287 20.4755 8.87815 22.0946 8.87815 22.0946" stroke="#004F2E" stroke-width="1.60033" stroke-miterlimit="22.9256" stroke-linecap="round" stroke-linejoin="round"/>
<path d="M13.7723 19.28C13.7723 19.28 12.0288 18.7009 10.5281 19.5851C9.02738 20.4755 8.87793 22.0946 8.87793 22.0946" stroke="#004F2E" stroke-width="1.60033" stroke-miterlimit="22.9256" stroke-linecap="round" stroke-linejoin="round"/>
<path d="M35.7163 32.9472C34.5208 35.0457 32.2604 36.4592 29.6762 36.4592C25.8404 36.4592 22.7269 33.3519 22.7269 29.5099C22.7269 28.1026 23.1441 26.795 23.8602 25.7052C22.4965 24.2232 21.6621 22.2493 21.6621 20.0761C21.6621 16.0223 24.5576 12.6473 28.3997 11.9063C28.2938 11.4393 28.244 10.9536 28.244 10.4554C28.244 6.78154 31.2205 3.79883 34.9006 3.79883C38.5745 3.79883 41.5572 6.77531 41.5572 10.4554C41.5572 10.7792 41.5323 11.0968 41.4887 11.4082C45.063 12.3422 47.7032 15.5927 47.7032 19.4596C47.7032 21.5083 46.9622 23.3826 45.7355 24.8335C47.2175 26.0415 48.164 27.8784 48.164 29.9396C48.164 33.5761 45.2187 36.5215 41.5821 36.5215C39.0291 36.5215 36.8185 35.0706 35.7226 32.9472H35.7163Z" stroke="#004F2E" stroke-width="1.60033" stroke-miterlimit="22.9256" stroke-linecap="round" stroke-linejoin="round"/>
<path d="M15.9893 48.0664H40.1747" stroke="#004F2E" stroke-width="1.60033" stroke-miterlimit="22.9256" stroke-linecap="round" stroke-linejoin="round"/>
<path d="M43.1885 48.0664H45.4675" stroke="#004F2E" stroke-width="1.60033" stroke-miterlimit="22.9256" stroke-linecap="round" stroke-linejoin="round"/>
<path d="M8.82227 9.29755C8.82227 9.29755 10.5658 8.71845 12.0665 9.60267C13.5672 10.4931 13.7166 12.1121 13.7166 12.1121" stroke="#004F2E" stroke-width="1.60033" stroke-miterlimit="22.9256" stroke-linecap="round" stroke-linejoin="round"/>
<path d="M18.6169 9.29755C18.6169 9.29755 16.8734 8.71845 15.3665 9.60267C13.8658 10.4931 13.7163 12.1121 13.7163 12.1121" stroke="#004F2E" stroke-width="1.60033" stroke-miterlimit="22.9256" stroke-linecap="round" stroke-linejoin="round"/>
</g>
<defs>
<clipPath id="clip0_353_14">
<rect width="45.9549" height="45.8638" fill="white" transform="translate(3 3)"/>
</clipPath>
</defs>
</svg>
