<svg width="72" height="72" viewBox="0 0 72 72" fill="none" xmlns="http://www.w3.org/2000/svg">
<path fill-rule="evenodd" clip-rule="evenodd" d="M32.26 62.8588C33.7993 25.9684 25.0137 31.8908 63.7664 31.3842L63.7474 62.8145L32.2537 62.8652L32.26 62.8588ZM23.5378 51.3749H29.397L29.3716 62.8208L23.4934 62.7575L23.5378 51.3749ZM9.08947 51.3242L20.567 51.3686L20.5355 62.8019L9.06413 62.8525L9.0958 51.3306L9.08947 51.3242ZM9.08313 36.952L25.1721 36.9393L29.3906 36.9456L29.378 48.4549L19.7119 48.4485L8.98179 48.5498L9.03879 42.8744L9.08313 36.9393V36.952ZM9.21615 22.5415L20.5291 22.662L20.5607 33.8228C18.6414 34.3802 11.5344 34.0192 9.03246 34.0255L9.21615 22.5415ZM52.3584 22.5669L63.7158 22.529L63.6524 28.4324L52.3459 28.3184L52.3584 22.5669ZM23.6201 22.5542L49.3878 22.5163L49.299 28.4768C41.3116 28.0524 32.5008 27.4696 30.3597 34.0382L23.4808 33.9875L23.6264 22.5542H23.6201ZM37.9354 8.12491L63.76 8.16925L63.6904 19.6089L37.9228 19.4948L37.9354 8.13125V8.12491ZM9.11481 8.11858L34.9648 8.20092C35.1041 21.2937 35.7059 19.6722 32.3551 19.6089L9.07047 19.5835L9.10847 8.11858H9.11481ZM6.11239 57.5445C6.25808 59.8311 5.84001 63.5113 6.41643 65.3799C8.60173 66.2096 64.3872 66.1969 66.4394 65.3926C67.1742 62.9918 66.7245 26.4118 66.7308 18.6714L66.7689 7.06076C66.6611 5.42653 66.6168 5.4012 65.0712 5.1795C58.7624 5.24919 8.08233 4.51441 6.7078 5.59123C6.05538 6.22465 6.11872 6.85807 6.12506 8.08057C6.17572 18.6587 5.77668 34.5259 6.18839 43.9069C6.35309 47.6694 6.40376 53.8706 6.11239 57.5445Z" fill="#01512E"/>
<path fill-rule="evenodd" clip-rule="evenodd" d="M39.393 55.9305C41.8633 56.5702 43.1428 54.0113 44.72 52.5354L53.7653 43.4965C54.6521 42.578 58.0726 40.0507 56.7297 38.6064C55.1271 36.8835 52.4098 40.665 51.4913 41.5645C49.9522 43.0784 48.5586 44.415 47.0383 45.9858C45.4738 47.601 44.0486 48.9945 42.4334 50.578C39.792 53.1562 38.5189 53.8719 39.393 55.9242V55.9305Z" fill="#01512E"/>
<path fill-rule="evenodd" clip-rule="evenodd" d="M38.537 46.5406C40.4436 46.7812 40.8045 46.0782 41.7294 45.1216C43.75 43.0187 49.5838 38.4264 46.8601 37.1659C45.1561 36.3741 40.8172 41.5365 38.9929 43.4114C37.8149 44.6213 37.6502 45.071 38.537 46.5342V46.5406Z" fill="#01512E"/>
<path fill-rule="evenodd" clip-rule="evenodd" d="M57.9072 50.0783C58.6229 49.0648 58.2049 46.9554 56.0575 47.7473C55.1897 48.0639 48.8935 54.6072 48.7541 54.8986C48.1462 56.1844 48.9696 57.6159 50.5721 57.1029L55.4874 52.3902C55.9055 51.9595 57.7931 50.2366 57.9072 50.0719V50.0783Z" fill="#01512E"/>
</svg>
