<svg width="80" height="80" viewBox="0 0 80 80" fill="none" xmlns="http://www.w3.org/2000/svg">
<path fill-rule="evenodd" clip-rule="evenodd" d="M4.52147 6.50212L74.484 6.51408L74.4852 73.3674L4.52476 73.3467L4.52147 6.50212ZM2 75.9706L2.76674 76L76.2321 75.9945L76.9814 75.9804L77 4.03372L76.2333 4L2.76674 4.00652L2.00219 4.02393L2 75.9706Z" fill="#01512E"/>
<path fill-rule="evenodd" clip-rule="evenodd" d="M57.095 57.4844L70.3166 57.4909L70.3495 69.4957L57.1136 69.5108L57.095 57.4844ZM42.5234 57.5051L55.7265 57.4887L55.7691 69.5184L42.5311 69.5098L42.5234 57.5051ZM57.1025 10.6149L70.3505 10.6366L70.3495 56.306L57.0927 56.305L57.1025 10.6149ZM42.5223 10.6171L55.7703 10.6149L55.7648 56.3038L42.5234 56.2822L42.5223 10.6171ZM40.0165 72L73 71.961L72.989 8L40 8.02277L40.0165 72Z" fill="#01512E"/>
<path fill-rule="evenodd" clip-rule="evenodd" d="M23.0966 57.4844L36.3178 57.4909L36.3518 69.4957L23.1164 69.5108L23.0966 57.4844ZM8.52549 57.5051L21.7281 57.4887L21.7709 69.5184L8.53316 69.5098L8.52549 57.5051ZM23.1043 10.6149L36.3518 10.6366L36.3507 56.306L23.0945 56.305L23.1043 10.6149ZM8.5233 10.6171L21.7709 10.6149L21.7654 56.3038L8.52439 56.2822L8.5233 10.6171ZM6.01753 72L39 71.961L38.988 8L6 8.02277L6.01753 72Z" fill="#01512E"/>
</svg>
