<svg width="80" height="80" viewBox="0 0 80 80" fill="none" xmlns="http://www.w3.org/2000/svg">
<path fill-rule="evenodd" clip-rule="evenodd" d="M36.26 66.8588C37.7993 29.9684 29.0137 35.8908 67.7664 35.3842L67.7474 66.8145L36.2537 66.8652L36.26 66.8588ZM27.5378 55.3749H33.397L33.3716 66.8208L27.4934 66.7575L27.5378 55.3749ZM13.0895 55.3242L24.567 55.3686L24.5355 66.8019L13.0641 66.8525L13.0958 55.3306L13.0895 55.3242ZM13.0831 40.952L29.1721 40.9393L33.3906 40.9456L33.378 52.4549L23.7119 52.4485L12.9818 52.5498L13.0388 46.8744L13.0831 40.9393V40.952ZM13.2162 26.5415L24.5291 26.662L24.5607 37.8228C22.6414 38.3802 15.5344 38.0192 13.0325 38.0255L13.2162 26.5415ZM56.3584 26.5669L67.7158 26.529L67.6524 32.4324L56.3459 32.3184L56.3584 26.5669ZM27.6201 26.5542L53.3878 26.5163L53.299 32.4768C45.3116 32.0524 36.5008 31.4696 34.3597 38.0382L27.4808 37.9875L27.6264 26.5542H27.6201ZM41.9354 12.1249L67.76 12.1692L67.6904 23.6089L41.9228 23.4948L41.9354 12.1312V12.1249ZM13.1148 12.1186L38.9648 12.2009C39.1041 25.2937 39.7059 23.6722 36.3551 23.6089L13.0705 23.5835L13.1085 12.1186H13.1148ZM10.1124 61.5445C10.2581 63.8311 9.84001 67.5113 10.4164 69.3799C12.6017 70.2096 68.3872 70.1969 70.4394 69.3926C71.1742 66.9918 70.7245 30.4118 70.7308 22.6714L70.7689 11.0608C70.6611 9.42653 70.6168 9.4012 69.0712 9.1795C62.7624 9.24919 12.0823 8.51441 10.7078 9.59123C10.0554 10.2247 10.1187 10.8581 10.1251 12.0806C10.1757 22.6587 9.77668 38.5259 10.1884 47.9069C10.3531 51.6694 10.4038 57.8706 10.1124 61.5445Z" fill="#01512E"/>
<path fill-rule="evenodd" clip-rule="evenodd" d="M43.393 59.9305C45.8633 60.5702 47.1428 58.0113 48.72 56.5354L57.7653 47.4965C58.6521 46.578 62.0726 44.0507 60.7297 42.6064C59.1271 40.8835 56.4098 44.665 55.4913 45.5645C53.9522 47.0784 52.5586 48.415 51.0383 49.9858C49.4738 51.601 48.0486 52.9945 46.4334 54.578C43.792 57.1562 42.5189 57.8719 43.393 59.9242V59.9305Z" fill="#01512E"/>
<path fill-rule="evenodd" clip-rule="evenodd" d="M42.537 50.5406C44.4436 50.7812 44.8045 50.0782 45.7294 49.1216C47.75 47.0187 53.5838 42.4264 50.8601 41.1659C49.1561 40.3741 44.8172 45.5365 42.9929 47.4114C41.8149 48.6213 41.6502 49.071 42.537 50.5342V50.5406Z" fill="#01512E"/>
<path fill-rule="evenodd" clip-rule="evenodd" d="M61.9072 54.0783C62.6229 53.0648 62.2049 50.9554 60.0575 51.7473C59.1897 52.0639 52.8935 58.6072 52.7541 58.8986C52.1462 60.1844 52.9696 61.6159 54.5721 61.1029L59.4874 56.3902C59.9055 55.9595 61.7931 54.2366 61.9072 54.0719V54.0783Z" fill="#01512E"/>
</svg>
