<svg width="80" height="80" viewBox="0 0 80 80" fill="none" xmlns="http://www.w3.org/2000/svg">
<path fill-rule="evenodd" clip-rule="evenodd" d="M56.3207 65.5145L73.1824 65.6259L73.1947 73.2104L56.3453 73.1832L56.3207 65.5145ZM7.89479 68.2395C6.47774 60.5128 18.5412 58.3693 19.7707 66.361C20.9616 74.1028 9.2702 75.7415 7.89479 68.2395ZM53.5642 73.2478L20.3103 73.1822C20.8565 72.1661 21.611 71.4994 22.2357 69.811C23.1482 67.3481 22.603 17.6607 22.603 17.5961L22.62 14.9721C29.2338 15.3907 64.8249 15.0432 73.1416 15.0395C73.4549 29.9891 73.1899 47.4297 73.1984 62.8446C70.4912 62.8232 54.6689 62.3362 53.834 63.5246C53.3749 64.1782 53.5424 71.8365 53.5622 73.2487L53.5642 73.2478ZM19.8456 60.7601C14.4765 57.1726 12.6069 58.1933 8.00555 60.4932C8.24693 50.7738 8.02448 40.7649 8.02448 31.0117C8.02448 26.1516 8.16742 21.0824 8.02732 16.2484C7.93551 13.0524 7.83989 7.63871 13.8461 7.72394C20.0169 7.81197 19.8427 13.6433 19.8371 16.5884L19.8456 60.7601ZM5.13643 68.7275C6.94158 74.924 10.0521 75.9288 17.2367 75.9252H71.1414C73.3026 75.9317 74.7746 76.3043 75.5905 75.3238L75.9502 44.7618C75.9218 34.265 76.0723 23.7317 75.954 13.2368C74.9477 11.7985 72.8 12.2957 70.4628 12.2967L50.1215 12.2957C44.989 12.2948 26.1252 12.5458 22.6607 12.2124C21.6999 10.2599 21.4567 7.78574 17.8274 5.91845C15.2291 4.58119 11.5458 4.71323 9.18406 6.25558C3.55183 9.93398 5.23581 16.6821 5.23581 24.303L5.13643 68.7275Z" fill="#004F2E"/>
<path fill-rule="evenodd" clip-rule="evenodd" d="M27.7575 63.7787L30.9192 63.8555L30.9917 67.1809L27.7181 67.2018L27.7575 63.7787ZM46.7494 41.5587L46.7741 44.3768L51.3494 44.4015L51.3328 50.6294L35.7024 50.5877L35.5393 39.3293C33.6941 38.1261 33.2531 39.1938 32.2485 37.1067C33.7922 36.3329 35.0929 34.9314 36.6081 33.8173C39.1373 31.9559 42.1056 32.6139 46.1912 32.7012L46.1032 29.8631L41.8947 29.9618C42.3898 29.1927 41.9057 29.8109 42.585 29.1424L44.2561 27.8148C45.0894 27.2279 46.0491 26.7101 47.3848 27.0469C48.5608 27.3418 59.3273 36.2855 60.7885 37.4604C59.8407 38.1346 60.4384 38.0131 59.242 38.5177C58.2428 38.9387 58.3593 38.4286 57.5508 39.5028C56.646 41.6241 57.2601 47.8151 57.2895 50.6285L54.0334 50.621C54.0729 46.7882 54.3405 45.6777 53.7318 41.8915C52.0406 41.167 48.9165 41.6052 46.7494 41.5587ZM62.0279 19.9218L65.3343 19.8658L65.2436 23.2443L62.0699 23.1201L62.0279 19.9218ZM27.72 19.8658L30.9816 19.8858L30.9622 23.2074L27.7227 23.2378L27.72 19.8658ZM25.4117 25.743C26.7254 26.1982 33.6591 26.9084 33.6491 24.6573L33.6418 22.4829L45.1462 22.4981C45.1324 25.541 45.7612 23.2861 42.3246 25.7904C34.6034 31.4144 39.8065 29.6128 25.7051 29.9503L25.6785 32.5589L33.3804 32.6101C33.0221 33.0349 33.2 32.849 32.8278 33.2378C31.6453 34.4734 28.7659 36.0475 28.7677 37.2223C29.2196 38.6713 31.3143 40.8209 33.0038 41.1575C32.9791 56.738 30.8477 53.0958 45.1635 53.3898L45.1086 54.8833C40.8543 55.2009 34.5777 54.9582 29.8732 55.0464L29.6799 47.2035L27.2039 47.1903L27.0315 53.8639C27.0471 58.5748 26.4788 57.802 33.9947 57.802C37.5322 57.802 41.6885 58.0029 45.1489 57.7374L45.1498 63.7123L33.6427 63.6953C33.6234 60.4011 32.7443 61.0449 29.7303 61.0601C24.7132 61.0837 25.0368 59.7856 25.0368 67.4474C25.0368 70.495 25.9425 69.9679 30.0548 69.9612C33.8114 69.9565 33.6188 70.3443 33.6473 66.4774L47.8504 66.4802L47.8367 53.422L51.3594 53.3784C51.3549 55.0938 50.7737 57.9584 52.2991 58.6326C52.7959 58.8526 52.4741 58.7615 53.0471 58.8308L67.3391 58.845L67.406 56.0848L54.0408 56.0998L54.0233 53.3263C56.2326 53.442 58.4088 53.6724 59.8397 52.7801C60.1834 49.7068 59.9873 44.4052 59.9855 41.2116C62.245 40.47 64.2361 38.1327 64.2361 37.2195C63.7897 35.5867 61.5667 34.3663 60.3091 33.4247L49.4656 24.9388C47.5983 23.8882 47.8458 25.0385 47.8229 22.4943L59.419 22.482C59.2907 26.7311 59.6545 26.0028 64.1976 26.0028C68.4493 26.0028 67.9175 26.5518 67.9972 20.2186C68.0432 16.5593 67.571 17.1292 62.5476 17.059C59.8067 17.0211 59.5061 16.7566 59.3236 19.6231L33.7994 19.7151C33.3255 17.4924 33.9865 17.1008 31.4014 17.0458C24.4904 16.9007 25.0056 16.8542 25.0304 20.9136C25.0423 22.6925 24.8233 24.479 25.41 25.7391L25.4117 25.743Z" fill="#004F2E"/>
</svg>
