<svg width="218" height="40" viewBox="0 0 218 40" fill="none" xmlns="http://www.w3.org/2000/svg">
<g clip-path="url(#clip0_2037_2962)">
<path d="M5.60288 19.651C5.60288 21.0781 5.72223 22.2305 5.95956 23.1098C6.19689 23.989 6.61325 24.8211 7.20865 25.606L7.67221 26.2481L7.20865 26.8181H0.428855L0 25.606L0.820238 25.3925C1.72375 25.1318 2.33164 24.7864 2.64114 24.3579C2.95063 23.9294 3.10469 23.1694 3.10469 22.0752V5.95622C3.10469 4.86341 2.94925 4.10204 2.64114 3.67352C2.33164 3.24499 1.72514 2.90106 0.820238 2.63895L0 2.42538L0.428855 1.21191H6.17468L19.8092 21.4331V5.95622C19.8092 4.86341 19.6538 4.10204 19.3457 3.67352C19.0362 3.24499 18.4297 2.90106 17.5248 2.63895L16.7045 2.42538L17.1334 1.2133H23.9146L24.3781 1.78328L23.9146 2.42538C23.3192 3.21032 22.9028 4.04241 22.6655 4.92165C22.4268 5.8009 22.3088 6.95473 22.3088 8.38038V23.6798C22.3088 24.4883 22.4753 25.1304 22.8084 25.606L23.272 26.2481L22.8084 26.8181H19.2041L5.60288 6.66904V19.651Z" fill="white"/>
<path d="M33.7281 8.38094V18.9735C33.7281 20.8526 34.3221 22.3379 35.5129 23.4321C36.7023 24.5263 38.2012 25.0727 40.0096 25.0727C41.818 25.0727 43.3169 24.5263 44.5064 23.4321C45.6958 22.3393 46.2912 20.8526 46.2912 18.9735V5.95679C46.2912 4.86397 46.1357 4.10261 45.8276 3.67408C45.5181 3.24556 44.9116 2.90163 44.0067 2.63952L43.1865 2.42595L43.6153 1.21387H50.3965L50.8601 1.78385L50.3965 2.42595C49.8011 3.21089 49.3848 4.04298 49.1474 4.92222C48.9087 5.80146 48.7907 6.9553 48.7907 8.38094V18.9735C48.7907 21.779 47.9344 23.8717 46.2204 25.2502C44.5077 26.6287 42.2705 27.3193 39.51 27.3193C36.7495 27.3193 34.5067 26.6301 32.7815 25.2502C31.0564 23.8717 30.1945 21.779 30.1945 18.9735V5.95679C30.1945 4.86397 30.0391 4.10261 29.731 3.67408C29.4215 3.24556 28.815 2.90163 27.9101 2.63952L27.0898 2.42595L27.5187 1.21387H35.3352L35.7988 1.78385L35.3352 2.42595C34.7398 3.21089 34.3235 4.04298 34.0862 4.92222C33.8474 5.80146 33.7295 6.9553 33.7295 8.38094H33.7281Z" fill="white"/>
<path d="M74.4152 25.8916C73.4395 26.8415 72.357 27.3186 71.1676 27.3186C69.9781 27.3186 69.0261 26.9858 68.3127 26.3201C67.5993 25.6544 66.8971 24.5963 66.2073 23.1457L63.4954 17.4042C63.2816 16.9285 63.0138 16.5846 62.6918 16.3697C62.3712 16.1561 61.8285 15.9065 61.068 15.6208C60.6155 15.4544 60.3893 15.134 60.3893 14.6583C60.3893 14.1826 60.5794 13.9455 60.9597 13.9455C60.9833 13.9455 61.1734 13.9871 61.5301 14.0703C61.8868 14.1535 62.2796 14.1951 62.7084 14.1951C64.4932 14.1951 65.8853 13.6903 66.8846 12.6793C67.8838 11.6697 68.3835 10.3079 68.3835 8.59516C68.3835 6.88243 67.8533 5.47481 66.7957 4.36952C65.7368 3.26423 64.274 2.71089 62.4059 2.71089C60.5378 2.71089 59.6037 3.25868 59.6037 4.35149V19.6509C59.6037 21.0779 59.7231 22.2248 59.9604 23.093C60.1977 23.9611 60.6141 24.7987 61.2095 25.6073L61.6731 26.2494L61.2095 26.8193H53.393L52.9641 25.6073L53.7844 25.3937C54.6879 25.1565 55.2958 24.8112 55.6053 24.3591C55.9147 23.9084 56.0688 23.147 56.0688 22.0764V4.45828C56.0688 3.88829 55.8065 3.60261 55.2833 3.60261H53.2125L52.7837 2.28236C53.8066 1.87879 55.157 1.51545 56.8349 1.19509C58.5129 0.874738 60.1242 0.713867 61.6717 0.713867C65.1927 0.713867 67.8103 1.43917 69.5243 2.88979C71.237 4.3404 72.0947 6.21815 72.0947 8.52443C72.0947 10.2843 71.6061 11.8181 70.6318 13.1245C69.6562 14.4323 68.2169 15.3129 66.3127 15.7636C66.836 16.12 67.312 16.7025 67.7409 17.511L71.0607 24.2509C71.4174 24.9887 71.8462 25.3562 72.3459 25.3562C72.8455 25.3562 73.3327 25.1898 73.8087 24.857L74.4152 25.8916Z" fill="white"/>
<path d="M93.3849 24.8231C93.6347 24.5859 93.7596 24.2642 93.7596 23.8606C93.7596 23.457 93.6292 22.8621 93.3669 22.0772L91.6542 17.0846H83.4102L82.5539 19.6877C82.0057 21.3283 81.7336 22.5653 81.7336 23.396C81.7336 24.2267 81.9002 24.9659 82.2333 25.6066L82.5539 26.2487L81.8752 26.8187H75.3078L74.8789 25.6066L75.6991 25.393C76.6498 25.1323 77.341 24.787 77.7699 24.3585C78.1987 23.93 78.6026 23.17 78.9829 22.0758L84.5857 5.9554C84.8467 5.17046 84.9785 4.5769 84.9785 4.17195C84.9785 3.767 84.8536 3.44664 84.6038 3.2095C84.354 2.97235 83.9431 2.78097 83.3727 2.63952L82.5525 2.42595L82.9814 1.21387H89.8694L97.0434 21.8983C97.4236 22.9925 97.84 23.8246 98.2924 24.3945C98.7435 24.9645 99.3986 25.583 100.255 26.2487L99.7914 26.8187H91.7611L91.3322 25.6066L92.1525 25.393C92.7229 25.2502 93.1337 25.0602 93.3835 24.8231H93.3849ZM87.4781 4.88755L84.1583 14.874H90.9034L87.4767 4.88755H87.4781Z" fill="white"/>
<path d="M112.89 3.24474H109.785C108.857 3.24474 108.245 3.42364 107.948 3.78006C107.649 4.13647 107.502 4.86178 107.502 5.95598V13.1605H111.678C112.772 13.1605 113.713 12.6141 114.499 11.5199L114.784 11.1274L115.498 11.5199V17.6177L114.285 18.0463L114.071 17.2266C113.857 16.4181 113.483 15.8773 112.947 15.6041C112.411 15.3309 111.49 15.1936 110.181 15.1936H107.504V22.0764C107.504 23.1706 107.658 23.9305 107.967 24.3591C108.277 24.7876 108.883 25.1315 109.788 25.3936L110.608 25.6072L110.18 26.8193H102.363L101.899 26.2493L102.363 25.6072C102.957 24.8223 103.373 23.9902 103.612 23.1109C103.849 22.2317 103.969 21.0778 103.969 19.6522V8.38013C103.969 6.9531 103.849 5.80065 103.612 4.92141C103.373 4.04217 102.957 3.21007 102.363 2.42514L101.899 1.78304L102.363 1.21306H112.928C114.973 1.21306 116.329 0.963429 116.997 0.464174L117.639 0.000976562L118.21 0.464174V6.81164L116.997 7.24017L116.783 6.42056C116.45 5.13637 116.034 4.28625 115.534 3.8702C115.034 3.45415 114.154 3.24613 112.893 3.24613L112.89 3.24474Z" fill="white"/>
<path d="M124.74 21.2554C124.74 22.3968 125.216 23.3592 126.168 24.1442C127.119 24.9291 128.321 25.3216 129.772 25.3216C131.224 25.3216 132.372 24.9652 133.217 24.2523C134.061 23.5395 134.484 22.6353 134.484 21.5425C134.484 20.4497 134.245 19.5399 133.771 18.8146C133.295 18.0893 132.683 17.5013 131.933 17.0492C131.184 16.5985 130.351 16.1644 129.435 15.747C128.519 15.3309 127.603 14.8969 126.687 14.4448C125.771 13.994 124.938 13.4879 124.189 12.929C123.439 12.3701 122.826 11.6392 122.351 10.735C121.875 9.8322 121.638 8.79763 121.638 7.6327C121.638 5.73138 122.31 4.10186 123.654 2.74694C124.998 1.39202 126.884 0.713867 129.311 0.713867C131.739 0.713867 133.701 1.20203 135.2 2.17557C136.699 3.15051 137.449 4.41112 137.449 5.95604C137.449 7.16812 137.085 8.16663 136.361 8.95157C135.635 9.73651 134.724 10.129 133.631 10.129C133.131 10.129 132.881 9.98613 132.881 9.70045C132.881 9.62972 132.975 9.4633 133.167 9.20119C133.69 8.3691 133.953 7.42468 133.953 6.36654C133.953 5.3084 133.536 4.4347 132.703 3.74545C131.871 3.0562 130.763 2.71089 129.384 2.71089C128.004 2.71089 126.933 3.1089 126.172 3.90494C125.41 4.70236 125.03 5.59408 125.03 6.58011C125.03 7.56614 125.267 8.38713 125.743 9.04032C126.219 9.6949 126.844 10.2413 127.617 10.6809C128.39 11.1206 129.241 11.5491 130.169 11.9651C131.098 12.3812 132.025 12.8277 132.953 13.302C133.882 13.7777 134.731 14.3061 135.506 14.8885C136.279 15.471 136.903 16.2324 137.379 17.1712C137.855 18.1101 138.093 19.1752 138.093 20.3637C138.093 22.48 137.385 24.1677 135.969 25.4284C134.553 26.689 132.537 27.3186 129.919 27.3186C127.302 27.3186 125.173 26.7833 123.531 25.714C121.889 24.6448 121.069 23.2649 121.069 21.5772C121.069 20.3651 121.455 19.3666 122.229 18.5816C123.002 17.7967 123.972 17.4042 125.138 17.4042C125.638 17.4042 125.888 17.5471 125.888 17.8328C125.888 17.8813 125.792 18.0463 125.602 18.332C125.031 19.1405 124.745 20.1155 124.745 21.2568L124.74 21.2554Z" fill="white"/>
<path d="M159.252 22.0758V14.9073H147.582V22.3254C147.582 23.3475 147.725 24.0617 148.01 24.4653C148.296 24.8702 148.879 25.2031 149.759 25.4638L150.509 25.6773L150.116 26.8187H141.372L140.943 25.6066L141.764 25.393C142.667 25.1323 143.275 24.787 143.585 24.3585C143.894 23.93 144.048 23.17 144.048 22.0758V5.95679C144.048 4.86397 143.893 4.10261 143.585 3.67408C143.275 3.24556 142.668 2.90163 141.764 2.63952L140.943 2.42595L141.372 1.21387H149.189L149.652 1.78385L149.189 2.42595C148.593 3.21089 148.177 4.04298 147.94 4.92222C147.701 5.80146 147.583 6.9553 147.583 8.38094V12.7314H159.254V5.95679C159.254 4.86397 159.098 4.10261 158.79 3.67408C158.481 3.24556 157.874 2.90163 156.969 2.63952L156.149 2.42595L156.578 1.21387H164.394L164.858 1.78385L164.394 2.42595C163.799 3.21089 163.383 4.04298 163.145 4.92222C162.907 5.80146 162.789 6.9553 162.789 8.38094V22.3254C162.789 23.3475 162.932 24.0617 163.217 24.4653C163.503 24.8702 164.086 25.2031 164.966 25.4638L165.716 25.6773L165.323 26.8187H156.579L156.15 25.6066L156.971 25.393C157.874 25.1323 158.482 24.787 158.792 24.3585C159.101 23.93 159.255 23.17 159.255 22.0758H159.252Z" fill="white"/>
<path d="M199.226 19.6516C199.226 21.0787 199.346 22.2311 199.583 23.1103C199.82 23.9896 200.237 24.8217 200.832 25.6066L201.296 26.2487L200.832 26.8187H194.051L193.622 25.6066L194.442 25.393C195.346 25.1323 195.954 24.787 196.263 24.3585C196.573 23.93 196.727 23.17 196.727 22.0758V5.95679C196.727 4.86397 196.571 4.10261 196.263 3.67408C195.954 3.24556 195.347 2.90163 194.442 2.63952L193.622 2.42595L194.051 1.21387H199.797L213.431 21.4351V5.95679C213.431 4.86397 213.276 4.10261 212.968 3.67408C212.658 3.24556 212.052 2.90163 211.147 2.63952L210.327 2.42595L210.755 1.21387H217.537L218 1.78385L217.537 2.42595C216.941 3.21089 216.525 4.04298 216.288 4.92222C216.049 5.80146 215.931 6.9553 215.931 8.38094V23.6803C215.931 24.4888 216.097 25.1309 216.431 25.6066L216.894 26.2487L216.431 26.8187H212.826L199.228 6.66822V19.6502L199.226 19.6516Z" fill="white"/>
<path d="M40.0986 34.2019H41.8127V38.5746H42.5191V34.2019H44.2317V33.582H40.0986V34.2019Z" fill="white"/>
<path d="M48.265 36.3917C48.265 36.9478 48.1429 37.3542 47.8972 37.6107C47.6515 37.8673 47.3032 37.9963 46.8507 37.9963C46.3983 37.9963 46.0569 37.8673 45.8126 37.6107C45.567 37.3542 45.4448 36.9478 45.4448 36.3917V33.582H44.7314V36.4208C44.7314 37.1434 44.9188 37.6926 45.2949 38.0684C45.671 38.4442 46.1873 38.6314 46.8438 38.6314C47.5003 38.6314 48.0221 38.4442 48.3968 38.0684C48.7702 37.6926 48.9575 37.1434 48.9575 36.4208V33.582H48.265V36.3917Z" fill="white"/>
<path d="M53.3474 36.8484C53.6569 36.7111 53.8942 36.5114 54.0608 36.2521C54.2273 35.9927 54.3106 35.6821 54.3106 35.3215C54.3106 34.9609 54.2273 34.6489 54.0608 34.3868C53.8942 34.1247 53.6555 33.925 53.3474 33.7877C53.0379 33.6504 52.6646 33.5811 52.2274 33.5811H50.2788V38.5736H50.9922V37.0536H52.2274C52.337 37.0536 52.4425 37.0495 52.5452 37.0412L53.6194 38.5736H54.398L53.21 36.8983C53.2558 36.8817 53.3044 36.8664 53.3488 36.847L53.3474 36.8484ZM52.2052 36.449H50.9922V34.2023H52.2052C52.6618 34.2023 53.0088 34.2994 53.2433 34.495C53.4793 34.6905 53.5972 34.9651 53.5972 35.3229C53.5972 35.6807 53.4793 35.9567 53.2433 36.1536C53.0074 36.3505 52.6618 36.449 52.2052 36.449Z" fill="white"/>
<path d="M56.8311 33.582L54.5688 38.5746H55.3044L55.854 37.3264H58.5104L59.06 38.5746H59.8095L57.5389 33.582H56.8325H56.8311ZM56.1038 36.7565L57.1808 34.306L58.2578 36.7565H56.1025H56.1038Z" fill="white"/>
<path d="M63.4763 36.8484C63.7858 36.7111 64.0231 36.5114 64.1897 36.2521C64.3562 35.9927 64.4395 35.6821 64.4395 35.3215C64.4395 34.9609 64.3562 34.6489 64.1897 34.3868C64.0231 34.1247 63.7844 33.925 63.4763 33.7877C63.1668 33.6504 62.7935 33.5811 62.3563 33.5811H60.4077V38.5736H61.1211V37.0536H62.3563C62.4659 37.0536 62.5714 37.0495 62.6741 37.0412L63.7483 38.5736H64.5269L63.3389 36.8983C63.3847 36.8817 63.4333 36.8664 63.4777 36.847L63.4763 36.8484ZM62.3341 36.449H61.1211V34.2023H62.3341C62.7907 34.2023 63.1377 34.2994 63.3722 34.495C63.6082 34.6905 63.7261 34.9651 63.7261 35.3229C63.7261 35.6807 63.6082 35.9567 63.3722 36.1536C63.1363 36.3505 62.7907 36.449 62.3341 36.449Z" fill="white"/>
<path d="M67.1025 35.7568H65.1816V36.349H67.1025V35.7568Z" fill="white"/>
<path d="M67.6521 34.2025H69.4577V37.0053C69.4577 37.6806 69.1718 38.0176 68.6014 38.0176C68.3918 38.0176 68.2003 37.9663 68.0268 37.8651C67.8533 37.7625 67.6979 37.6169 67.5591 37.4269L67.1455 37.9122C67.3079 38.1452 67.5161 38.3241 67.7742 38.4476C68.031 38.571 68.3072 38.6334 68.6028 38.6334C69.1163 38.6334 69.5063 38.4961 69.77 38.2201C70.0337 37.9441 70.1655 37.5281 70.1655 36.972V33.584H67.6535V34.2039L67.6521 34.2025Z" fill="white"/>
<path d="M75.6296 34.2474C75.3895 34.0171 75.1091 33.8382 74.7871 33.712C74.4665 33.5858 74.1154 33.5234 73.7337 33.5234C73.3521 33.5234 72.994 33.5872 72.6706 33.7162C72.3472 33.8452 72.0669 34.0241 71.8282 34.2543C71.5908 34.4845 71.4049 34.7549 71.2716 35.0642C71.1384 35.3735 71.0718 35.7105 71.0718 36.0766C71.0718 36.4427 71.1384 36.7797 71.2716 37.0889C71.4049 37.3982 71.5908 37.6673 71.8282 37.8988C72.0655 38.1291 72.3486 38.3093 72.6734 38.4369C72.9995 38.5659 73.3521 38.6297 73.7337 38.6297C74.1154 38.6297 74.4651 38.5673 74.7871 38.4411C75.1077 38.3149 75.3895 38.1374 75.6296 37.9058C75.8697 37.6756 76.0557 37.4051 76.1861 37.0959C76.3166 36.7866 76.3818 36.4469 76.3818 36.0752C76.3818 35.7035 76.3166 35.3637 76.1861 35.0545C76.0557 34.7452 75.8697 34.4762 75.6296 34.2446V34.2474ZM75.5227 36.8407C75.4256 37.0737 75.2895 37.2776 75.1161 37.4509C74.9426 37.6243 74.7372 37.7588 74.5026 37.8545C74.2667 37.9502 74.0113 37.9973 73.7351 37.9973C73.4589 37.9973 73.1966 37.9502 72.9607 37.8545C72.7247 37.7588 72.5193 37.6256 72.3431 37.4509C72.1668 37.2776 72.0294 37.0737 71.9323 36.8407C71.8351 36.6077 71.7865 36.3539 71.7865 36.078C71.7865 35.802 71.8351 35.5482 71.9323 35.3152C72.0294 35.0822 72.1668 34.8784 72.3431 34.705C72.5193 34.5317 72.7247 34.3971 72.9607 34.3014C73.1966 34.2058 73.4548 34.1586 73.7351 34.1586C74.0155 34.1586 74.2667 34.2058 74.5026 34.3014C74.7386 34.3971 74.9426 34.5303 75.1161 34.705C75.2895 34.8784 75.4256 35.0822 75.5227 35.3152C75.6199 35.5482 75.6684 35.802 75.6684 36.078C75.6684 36.3539 75.6199 36.6077 75.5227 36.8407Z" fill="white"/>
<path d="M80.3082 33.582L78.7024 36.2156L77.1036 33.582H76.3389L78.3235 36.8355V38.5746H79.03V36.8466L81.0146 33.582H80.3082Z" fill="white"/>
<path d="M88.0958 33.582L86.039 37.0893L83.9558 33.582H83.3701V38.5746H84.0557V34.9564L85.8614 37.9685H86.1903L87.9973 34.9328L88.0029 38.5746H88.6885L88.6815 33.582H88.0958Z" fill="white"/>
<path d="M91.5503 33.582L89.2881 38.5746H90.0237L90.5733 37.3264H93.2297L93.7793 38.5746H94.5287L92.2581 33.582H91.5517H91.5503ZM90.8231 36.7565L91.9001 34.306L92.9771 36.7565H90.8217H90.8231Z" fill="white"/>
<path d="M94.927 34.2025H96.7326V37.0053C96.7326 37.6806 96.4467 38.0176 95.8763 38.0176C95.6667 38.0176 95.4752 37.9663 95.3017 37.8651C95.1282 37.7625 94.9728 37.6169 94.834 37.4269L94.4204 37.9122C94.5828 38.1452 94.7924 38.3241 95.0491 38.4476C95.3059 38.571 95.5821 38.6334 95.8777 38.6334C96.3912 38.6334 96.7812 38.4961 97.0449 38.2201C97.3086 37.9441 97.4404 37.5281 97.4404 36.972V33.584H94.9284V34.2039L94.927 34.2025Z" fill="white"/>
<path d="M103.479 33.582L101.422 37.0893L99.3377 33.582H98.7534V38.5746H99.439V34.9564L101.245 37.9685H101.572L103.379 34.9328L103.386 38.5746H104.072L104.063 33.582H103.479Z" fill="white"/>
<path d="M108.918 36.3917C108.918 36.9478 108.796 37.3542 108.55 37.6107C108.304 37.8673 107.956 37.9963 107.505 37.9963C107.054 37.9963 106.711 37.8673 106.467 37.6107C106.221 37.3542 106.099 36.9478 106.099 36.3917V33.582H105.386V36.4208C105.386 37.1434 105.573 37.6926 105.949 38.0684C106.325 38.4442 106.842 38.6314 107.498 38.6314C108.155 38.6314 108.676 38.4442 109.051 38.0684C109.424 37.6926 109.612 37.1434 109.612 36.4208V33.582H108.919V36.3917H108.918Z" fill="white"/>
<path d="M112.33 33.582L110.067 38.5746H110.803L111.353 37.3264H114.009L114.559 38.5746H115.308L113.037 33.582H112.331H112.33ZM111.602 36.7565L112.679 34.306L113.756 36.7565H111.601H111.602Z" fill="white"/>
<path d="M118.7 36.171C118.521 36.0712 118.324 35.9907 118.107 35.9283C117.891 35.8659 117.676 35.8105 117.462 35.7605C117.248 35.7106 117.051 35.6551 116.874 35.5927C116.695 35.5303 116.55 35.4485 116.438 35.3431C116.325 35.2391 116.27 35.0976 116.27 34.9229C116.27 34.7759 116.312 34.6428 116.395 34.5235C116.478 34.4042 116.61 34.3099 116.79 34.2378C116.971 34.1671 117.203 34.131 117.483 34.131C117.706 34.131 117.937 34.1629 118.175 34.2281C118.413 34.2919 118.639 34.3959 118.854 34.5387L119.09 33.9688C118.881 33.8259 118.633 33.7164 118.348 33.6401C118.062 33.5638 117.774 33.5264 117.484 33.5264C117.046 33.5264 116.686 33.5915 116.403 33.7219C116.12 33.8523 115.91 34.0256 115.774 34.2434C115.638 34.4597 115.57 34.6968 115.57 34.9534C115.57 35.21 115.625 35.4374 115.734 35.6066C115.844 35.7758 115.988 35.9103 116.166 36.0102C116.345 36.11 116.542 36.1918 116.758 36.2556C116.975 36.3194 117.19 36.3763 117.405 36.4234C117.619 36.4706 117.816 36.5274 117.994 36.5912C118.173 36.655 118.317 36.7396 118.429 36.845C118.542 36.9504 118.597 37.0877 118.597 37.2583C118.597 37.4053 118.554 37.5384 118.468 37.6535C118.382 37.77 118.249 37.8616 118.069 37.9281C117.888 37.9947 117.652 38.028 117.362 38.028C117.043 38.028 116.736 37.9739 116.442 37.8643C116.146 37.7548 115.904 37.6175 115.713 37.4511L115.45 38.0072C115.65 38.193 115.923 38.3442 116.271 38.4607C116.618 38.5772 116.983 38.6354 117.364 38.6354C117.801 38.6354 118.164 38.5702 118.452 38.4399C118.739 38.3095 118.953 38.1362 119.09 37.9184C119.228 37.7021 119.297 37.4677 119.297 37.2153C119.297 36.9629 119.243 36.7396 119.133 36.5732C119.023 36.4068 118.879 36.2737 118.702 36.1738L118.7 36.171Z" fill="white"/>
<path d="M120.909 33.582H120.196V38.5746H120.909V33.582Z" fill="white"/>
<path d="M123.094 39.2875H123.716L126.071 32.5684H125.449L123.094 39.2875Z" fill="white"/>
<path d="M131.76 35.6749C131.593 35.3878 131.367 35.1632 131.081 35.0009C130.795 34.8386 130.468 34.7582 130.096 34.7582C129.782 34.7582 129.495 34.8289 129.235 34.9718C129.056 35.0702 128.904 35.2048 128.774 35.3712V33.2812H128.089V38.5734H128.745V37.9742C128.876 38.1518 129.033 38.2946 129.22 38.3986C129.48 38.5442 129.771 38.6163 130.094 38.6163C130.466 38.6163 130.794 38.5359 131.08 38.3736C131.366 38.2114 131.592 37.9867 131.758 37.6955C131.925 37.4056 132.008 37.0673 132.008 36.6831C132.008 36.299 131.925 35.962 131.758 35.6735L131.76 35.6749ZM131.149 37.3862C131.037 37.5887 130.885 37.744 130.693 37.8536C130.5 37.9632 130.282 38.0172 130.039 38.0172C129.796 38.0172 129.585 37.9632 129.392 37.8536C129.199 37.744 129.047 37.5887 128.935 37.3862C128.823 37.1838 128.768 36.9494 128.768 36.6831C128.768 36.4168 128.823 36.1783 128.935 35.98C129.048 35.7831 129.199 35.6291 129.392 35.5196C129.585 35.41 129.8 35.3559 130.039 35.3559C130.278 35.3559 130.5 35.41 130.693 35.5196C130.885 35.6291 131.038 35.7831 131.149 35.98C131.262 36.1769 131.317 36.4113 131.317 36.6831C131.317 36.9549 131.262 37.1838 131.149 37.3862Z" fill="white"/>
<path d="M134.079 37.8144L132.759 34.7939H132.046L133.715 38.5647L133.595 38.831C133.499 39.0501 133.398 39.2026 133.288 39.2872C133.178 39.3732 133.041 39.4162 132.874 39.4162C132.745 39.4162 132.625 39.3926 132.511 39.3455C132.397 39.2983 132.292 39.229 132.197 39.1388L131.904 39.652C132.028 39.7657 132.175 39.8531 132.347 39.9127C132.518 39.9723 132.694 40.0014 132.876 40.0014C133.072 40.0014 133.249 39.9696 133.412 39.9058C133.574 39.842 133.722 39.7338 133.857 39.5812C133.993 39.4287 134.115 39.2193 134.225 38.953L136.06 34.7939H135.389L134.082 37.8144H134.079Z" fill="white"/>
<path d="M145.993 33.582H145.322L143.936 35.4972L142.538 33.582H141.846H141.725H137.712V34.2019H139.426V38.5746H140.133V34.2019H141.846V33.7498L143.487 36.0159L141.61 38.5746H142.431L143.909 36.5165L145.408 38.5746H146.228L144.34 35.9923L145.993 33.7276V34.2019H147.707V38.5746H148.413V34.2019H150.126V33.582H146.099H145.993Z" fill="white"/>
<path d="M153.407 34.7013C153.586 34.5307 153.797 34.3975 154.042 34.3019C154.287 34.2062 154.553 34.159 154.838 34.159C155.122 34.159 155.379 34.2048 155.619 34.2977C155.859 34.3906 156.081 34.5362 156.287 34.7359L156.729 34.2935C156.5 34.037 156.223 33.8442 155.894 33.7152C155.565 33.5863 155.204 33.5225 154.809 33.5225C154.413 33.5225 154.062 33.5863 153.739 33.7111C153.415 33.8373 153.133 34.0148 152.892 34.2464C152.652 34.4766 152.464 34.747 152.331 35.0563C152.198 35.3655 152.131 35.7053 152.131 36.077C152.131 36.4486 152.198 36.7884 152.331 37.0977C152.464 37.4069 152.65 37.676 152.888 37.9076C153.125 38.1378 153.407 38.3167 153.73 38.4429C154.054 38.5691 154.409 38.6315 154.793 38.6315C155.146 38.6315 155.487 38.5774 155.818 38.4706C156.148 38.3638 156.438 38.2057 156.685 37.9963V36.0492H155.999V37.6718C155.87 37.7564 155.737 37.8244 155.595 37.8729C155.35 37.9561 155.094 37.9977 154.828 37.9977C154.542 37.9977 154.278 37.9506 154.036 37.8549C153.793 37.7592 153.582 37.6261 153.404 37.4513C153.225 37.278 153.088 37.0727 152.99 36.8383C152.893 36.6026 152.845 36.3502 152.845 36.0784C152.845 35.8065 152.893 35.5472 152.99 35.3115C153.088 35.0757 153.226 34.8732 153.404 34.7013H153.407Z" fill="white"/>
<path d="M160.976 36.8484C161.286 36.7111 161.523 36.5114 161.69 36.2521C161.856 35.9927 161.94 35.6821 161.94 35.3215C161.94 34.9609 161.856 34.6489 161.69 34.3868C161.523 34.1247 161.284 33.925 160.976 33.7877C160.667 33.6504 160.293 33.5811 159.856 33.5811H157.908V38.5736H158.621V37.0536H159.856C159.966 37.0536 160.071 37.0495 160.174 37.0412L161.248 38.5736H162.026L160.838 36.8983C160.883 36.8817 160.932 36.8664 160.976 36.847V36.8484ZM159.834 36.449H158.621V34.2023H159.834C160.291 34.2023 160.638 34.2994 160.872 34.495C161.108 34.6905 161.226 34.9651 161.226 35.3229C161.226 35.6807 161.108 35.9567 160.872 36.1536C160.636 36.3505 160.291 36.449 159.834 36.449Z" fill="white"/>
<path d="M167.104 34.2474C166.864 34.0171 166.583 33.8382 166.261 33.712C165.941 33.5858 165.59 33.5234 165.208 33.5234C164.826 33.5234 164.468 33.5872 164.145 33.7162C163.821 33.8452 163.541 34.0241 163.302 34.2543C163.065 34.4845 162.879 34.7549 162.746 35.0642C162.613 35.3735 162.546 35.7105 162.546 36.0766C162.546 36.4427 162.613 36.7797 162.746 37.0889C162.879 37.3982 163.065 37.6673 163.302 37.8988C163.54 38.1291 163.823 38.3093 164.148 38.4369C164.474 38.5659 164.826 38.6297 165.208 38.6297C165.59 38.6297 165.939 38.5673 166.261 38.4411C166.582 38.3149 166.864 38.1374 167.104 37.9058C167.344 37.6756 167.53 37.4051 167.66 37.0959C167.791 36.7866 167.856 36.4469 167.856 36.0752C167.856 35.7035 167.791 35.3637 167.66 35.0545C167.53 34.7452 167.344 34.4762 167.104 34.2446V34.2474ZM166.997 36.8407C166.9 37.0737 166.764 37.2776 166.59 37.4509C166.417 37.6243 166.211 37.7588 165.977 37.8545C165.741 37.9502 165.485 37.9973 165.209 37.9973C164.933 37.9973 164.671 37.9502 164.435 37.8545C164.199 37.7588 163.993 37.6256 163.817 37.4509C163.641 37.2776 163.504 37.0737 163.406 36.8407C163.309 36.6077 163.261 36.3539 163.261 36.078C163.261 35.802 163.309 35.5482 163.406 35.3152C163.504 35.0822 163.641 34.8784 163.817 34.705C163.993 34.5317 164.199 34.3971 164.435 34.3014C164.671 34.2058 164.929 34.1586 165.209 34.1586C165.49 34.1586 165.741 34.2058 165.977 34.3014C166.213 34.3971 166.417 34.5303 166.59 34.705C166.764 34.8784 166.9 35.0822 166.997 35.3152C167.094 35.5482 167.143 35.802 167.143 36.078C167.143 36.3539 167.094 36.6077 166.997 36.8407Z" fill="white"/>
<path d="M172.297 36.3917C172.297 36.9478 172.175 37.3542 171.929 37.6107C171.684 37.8673 171.335 37.9963 170.883 37.9963C170.431 37.9963 170.089 37.8673 169.845 37.6107C169.599 37.3542 169.477 36.9478 169.477 36.3917V33.582H168.764V36.4208C168.764 37.1434 168.951 37.6926 169.327 38.0684C169.703 38.4442 170.22 38.6314 170.876 38.6314C171.532 38.6314 172.054 38.4442 172.429 38.0684C172.802 37.6926 172.99 37.1434 172.99 36.4208V33.582H172.297V36.3917Z" fill="white"/>
<path d="M178.093 34.3878C177.926 34.1257 177.688 33.926 177.38 33.7887C177.07 33.6514 176.697 33.582 176.26 33.582H174.311V38.5746H175.024V37.0629H176.26C176.697 37.0629 177.072 36.9922 177.38 36.8522C177.689 36.7121 177.926 36.5124 178.093 36.253C178.26 35.9937 178.343 35.6831 178.343 35.3225C178.343 34.9619 178.26 34.6499 178.093 34.3878ZM177.276 36.149C177.04 36.3446 176.694 36.4416 176.237 36.4416H175.024V34.2019H176.237C176.694 34.2019 177.041 34.299 177.276 34.4946C177.512 34.6901 177.629 34.9647 177.629 35.3225C177.629 35.6803 177.512 35.9549 177.276 36.1504V36.149Z" fill="white"/>
<path d="M170.976 23.311C168.954 20.8272 167.942 17.6472 167.942 13.771C167.942 9.89488 168.952 6.70381 170.976 4.19506C172.998 1.6863 175.919 0.432617 179.737 0.432617C183.556 0.432617 186.488 1.6863 188.535 4.19506C190.581 6.70381 191.605 9.89627 191.605 13.771C191.605 17.6458 190.582 20.8272 188.535 23.311C186.488 25.7961 183.557 27.0373 179.737 27.0373C175.918 27.0373 172.998 25.7948 170.976 23.311ZM186.109 6.53046C185.561 5.31838 184.753 4.33651 183.682 3.58763C182.612 2.83875 181.361 2.46431 179.935 2.46431C177.413 2.46431 175.425 3.57653 173.974 5.79822C172.522 8.02129 171.796 10.7436 171.796 13.9652C171.796 17.1868 172.475 19.8203 173.831 21.8645C175.187 23.9101 177.114 24.9321 179.613 24.9321C182.111 24.9321 184.086 23.8865 185.537 21.7938C186.989 19.7025 187.715 17.2103 187.715 14.3216C187.715 11.4329 187.179 8.83535 186.109 6.52907V6.53046Z" fill="white"/>
<path d="M185.579 13.7367C181.708 15.2456 180.842 16.4687 179.774 21.9314C178.705 16.4673 177.839 15.2442 173.968 13.7367C177.839 12.2278 178.705 11.0047 179.774 5.54199C180.842 11.0061 181.708 12.2292 185.579 13.7367Z" fill="white"/>
</g>
<defs>
<clipPath id="clip0_2037_2962">
<rect width="218" height="40" fill="white"/>
</clipPath>
</defs>
</svg>
